<svg xmlns="http://www.w3.org/2000/svg" width="1250" height="1922" viewBox="0 0 1250 1922">
<rect width="100%" height="100%" fill="#ffffff"/>
<style>text{font-family:Arial,sans-serif;fill:#222}.h{font-size:28px;font-weight:700}.l{font-size:18px}</style>
<text class="h" x="40" y="36">L'Essence — paleta extraída das referências</text>
<rect x="40" y="70" width="1170" height="180" rx="6" fill="#EDDFDC"/>
<text class="l" x="40" y="278">Blush claro · #EDDFDC · RGB 237, 223, 220</text>
<rect x="40" y="326" width="1170" height="180" rx="6" fill="#D8B3A0"/>
<text class="l" x="40" y="534">Nude · #D8B3A0 · RGB 216, 179, 160</text>
<rect x="40" y="582" width="1170" height="180" rx="6" fill="#B2644D"/>
<text class="l" x="40" y="790">Terracota · #B2644D · RGB 178, 100, 77</text>
<text class="h" x="40" y="850">Neutros da prancha enviada</text>
<rect x="40" y="878" width="180" height="180" rx="5" fill="#CEB9A8"/>
<text class="l" x="48" y="1085">#CEB9A8</text>
<rect x="238" y="878" width="180" height="180" rx="5" fill="#D7C6B4"/>
<text class="l" x="246" y="1085">#D7C6B4</text>
<rect x="436" y="878" width="180" height="180" rx="5" fill="#DED0C3"/>
<text class="l" x="444" y="1085">#DED0C3</text>
<rect x="634" y="878" width="180" height="180" rx="5" fill="#E4D7CE"/>
<text class="l" x="642" y="1085">#E4D7CE</text>
<rect x="832" y="878" width="180" height="180" rx="5" fill="#E8DED5"/>
<text class="l" x="840" y="1085">#E8DED5</text>
<rect x="1030" y="878" width="180" height="180" rx="5" fill="#EEE5E0"/>
<text class="l" x="1038" y="1085">#EEE5E0</text>
<rect x="40" y="1134" width="180" height="180" rx="5" fill="#D4C1B2"/>
<text class="l" x="48" y="1341">#D4C1B2</text>
<rect x="238" y="1134" width="180" height="180" rx="5" fill="#DCCCBF"/>
<text class="l" x="246" y="1341">#DCCCBF</text>
<rect x="436" y="1134" width="180" height="180" rx="5" fill="#E4D6CB"/>
<text class="l" x="444" y="1341">#E4D6CB</text>
<rect x="634" y="1134" width="180" height="180" rx="5" fill="#E8DED4"/>
<text class="l" x="642" y="1341">#E8DED4</text>
<rect x="832" y="1134" width="180" height="180" rx="5" fill="#EDE4DF"/>
<text class="l" x="840" y="1341">#EDE4DF</text>
<rect x="1030" y="1134" width="180" height="180" rx="5" fill="#EEE9E3"/>
<text class="l" x="1038" y="1341">#EEE9E3</text>
<rect x="40" y="1390" width="180" height="180" rx="5" fill="#DCC0A8"/>
<text class="l" x="48" y="1597">#DCC0A8</text>
<rect x="238" y="1390" width="180" height="180" rx="5" fill="#E2C8B7"/>
<text class="l" x="246" y="1597">#E2C8B7</text>
<rect x="436" y="1390" width="180" height="180" rx="5" fill="#E7D6C6"/>
<text class="l" x="444" y="1597">#E7D6C6</text>
<rect x="634" y="1390" width="180" height="180" rx="5" fill="#EBDDD0"/>
<text class="l" x="642" y="1597">#EBDDD0</text>
<rect x="832" y="1390" width="180" height="180" rx="5" fill="#EEE1D8"/>
<text class="l" x="840" y="1597">#EEE1D8</text>
<rect x="1030" y="1390" width="180" height="180" rx="5" fill="#F1E7DE"/>
<text class="l" x="1038" y="1597">#F1E7DE</text>
<rect x="40" y="1646" width="180" height="180" rx="5" fill="#F3D9C8"/>
<text class="l" x="48" y="1853">#F3D9C8</text>
<rect x="238" y="1646" width="180" height="180" rx="5" fill="#F4E2CE"/>
<text class="l" x="246" y="1853">#F4E2CE</text>
<rect x="436" y="1646" width="180" height="180" rx="5" fill="#F5E5D8"/>
<text class="l" x="444" y="1853">#F5E5D8</text>
<rect x="634" y="1646" width="180" height="180" rx="5" fill="#F9EBE0"/>
<text class="l" x="642" y="1853">#F9EBE0</text>
<rect x="832" y="1646" width="180" height="180" rx="5" fill="#F9EFE5"/>
<text class="l" x="840" y="1853">#F9EFE5</text>
<rect x="1030" y="1646" width="180" height="180" rx="5" fill="#FAF1E8"/>
<text class="l" x="1038" y="1853">#FAF1E8</text>
</svg>